# xmcd
#
# Track frame offsets:
#	150
#	16597
#	34277
#	51462
#	71237
#	87190
#	105197
#	124647
#	143947
#	167175
#	185407
#	196525
#	220627
#	237922
#
# Disc length: 3437 seconds
#
# Revision: 0
# Processed by: cddbd v1.5.2PL0 Copyright (c) Steve Scherf et al.
# Submitted via: EasyCDDAExtractor 10.0.2.1
#
DISCID=b90d6b0e
DTITLE=Virtue - Testimony
DYEAR=2006
DGENRE=Gospel
TTITLE0=Follow Me
TTITLE1=Testimony
TTITLE2=The Sky is T he Limit
TTITLE3=123 Praise
TTITLE4=Give Him The Praises
TTITLE5=Thank You Jesus
TTITLE6=Fall Again
TTITLE7=Nothing Ever Mattered
TTITLE8=Get Up
TTITLE9=Praises To You 
TTITLE10=Praises To You (Reprise)
TTITLE11=Holy, Holy
TTITLE12=Down With It
TTITLE13=123 Praise (Remix) Hidden Track
EXTD=
EXTT0=
EXTT1=
EXTT2=
EXTT3=
EXTT4=
EXTT5=
EXTT6=
EXTT7=
EXTT8=
EXTT9=
EXTT10=
EXTT11=
EXTT12=
EXTT13=
PLAYORDER=
